<?xml version="1.0" standalone="no"?>
<!DOCTYPE svg PUBLIC "-//W3C//DTD SVG 20010904//EN"
 "http://www.w3.org/TR/2001/REC-SVG-20010904/DTD/svg10.dtd">
<svg version="1.0" xmlns="http://www.w3.org/2000/svg"
 width="1200.000000pt" height="1200.000000pt" viewBox="0 0 1200.000000 1200.000000"
 preserveAspectRatio="xMidYMid meet">
<metadata>
Created by potrace 1.16, written by Peter Selinger 2001-2019
</metadata>
<g transform="translate(0.000000,1200.000000) scale(0.100000,-0.100000)"
fill="" stroke="none">
<path d="M0 6000 l0 -6000 6000 0 6000 0 0 6000 0 6000 -6000 0 -6000 0 0
-6000z m6828 2599 c449 -259 827 -478 840 -485 l22 -14 0 -975 0 -975 -22 -14
c-103 -64 -1659 -956 -1668 -956 -11 0 -247 135 -1315 752 l-370 214 0 979 0
979 340 196 c187 108 563 326 835 483 272 157 501 286 508 287 7 0 381 -212
830 -471z m-2158 -4415 c86 -41 131 -113 131 -214 1 -72 -25 -133 -76 -183
-21 -20 -41 -37 -44 -37 -3 0 -12 -4 -19 -9 -11 -6 7 -50 77 -190 l91 -181
-83 0 -84 0 -84 175 -83 175 -48 0 -48 0 0 -175 0 -175 -80 0 -80 0 0 421 0
421 193 -4 c170 -3 197 -6 237 -24z m2300 -34 l0 -60 -79 0 c-54 0 -80 -4 -83
-12 -2 -7 -4 -141 -4 -298 l1 -285 88 -3 87 -3 0 -59 0 -60 -245 0 -245 0 0
60 0 59 83 3 82 3 0 295 0 295 -77 3 -78 3 0 59 0 60 235 0 235 0 0 -60z m560
4 c0 -3 -4 -13 -9 -22 -4 -9 -11 -45 -14 -79 l-5 -63 99 0 99 0 0 -60 0 -60
-99 0 -99 0 -7 -115 c-13 -204 11 -271 94 -268 24 1 62 13 87 27 l45 25 9 -23
c5 -13 12 -40 15 -59 7 -34 6 -35 -49 -62 -66 -32 -173 -44 -228 -26 -19 6
-48 26 -65 44 -52 54 -63 106 -63 292 l0 165 -60 0 -60 0 0 60 0 60 65 0 65 0
0 74 0 75 48 6 c26 3 54 8 62 9 27 6 70 6 70 0z m-2145 -178 c97 -45 148 -134
149 -261 l1 -80 -208 -3 -207 -2 6 -28 c10 -43 37 -75 85 -100 58 -31 142 -26
198 11 l38 26 39 -40 39 -40 -30 -25 c-70 -58 -103 -69 -210 -69 -89 0 -105 3
-150 27 -64 34 -108 80 -137 143 -32 71 -32 217 1 290 29 65 83 121 146 151
69 33 170 33 240 0z m776 -2 c50 -28 85 -70 116 -139 13 -31 18 -67 18 -155 0
-100 -4 -122 -24 -168 -61 -135 -206 -188 -335 -124 l-56 29 0 -139 0 -138
-80 0 -80 0 0 425 0 425 80 0 80 0 0 -37 0 -37 33 31 c42 41 69 52 141 52 45
1 69 -5 107 -25z"/>
<path d="M5485 8604 c-280 -163 -625 -362 -765 -444 l-255 -147 0 -888 0 -888
768 -444 767 -444 618 357 c339 196 685 396 767 445 l150 87 0 887 0 888 -150
87 c-417 242 -1384 800 -1387 800 -2 -1 -232 -134 -513 -296z m1304 -769 c16
-8 31 -22 35 -30 3 -9 6 -259 6 -554 0 -529 0 -539 -21 -565 l-20 -26 -285 0
-284 0 0 -55 0 -55 71 0 c67 0 73 -2 105 -34 31 -31 34 -40 34 -90 l0 -56
-430 0 -430 0 0 59 c0 55 2 61 35 90 33 28 42 31 105 31 l70 0 0 55 0 55 -282
0 c-275 0 -282 0 -305 22 l-23 21 0 547 c0 575 -1 563 45 588 14 8 250 11 783
12 651 0 767 -2 791 -15z"/>
<path d="M5250 7360 l0 -410 750 0 750 0 0 410 0 410 -750 0 -750 0 0 -410z"/>
<path d="M5250 6800 l0 -70 750 0 750 0 0 70 0 70 -750 0 -750 0 0 -70z"/>
<path d="M5860 6605 l0 -55 140 0 140 0 0 55 0 55 -140 0 -140 0 0 -55z"/>
<path d="M5654 6466 c-10 -8 -16 -17 -13 -20 3 -4 167 -5 364 -4 342 3 358 4
341 21 -16 15 -46 17 -345 17 -267 0 -331 -3 -347 -14z"/>
<path d="M4400 3965 l0 -117 95 4 c80 2 98 6 115 24 47 47 41 138 -12 177 -21
16 -48 22 -113 25 l-85 5 0 -118z"/>
<path d="M5189 3863 c-30 -18 -48 -44 -60 -85 l-8 -28 135 0 c74 0 134 3 134
8 0 37 -25 86 -53 102 -39 24 -112 26 -148 3z"/>
<path d="M5954 3868 c-12 -5 -32 -29 -45 -51 -21 -36 -24 -55 -24 -137 0 -72
5 -104 19 -133 45 -91 169 -89 217 5 32 62 33 195 1 255 -34 64 -107 91 -168
61z"/>
</g>
</svg>